<?xml version="1.0" encoding="utf-8"?>
<svg viewBox="0 0 512 512" width="512" height="512" xmlns="http://www.w3.org/2000/svg">
  <g transform="matrix(0.375001, 0, 0, 0.375001, 47.853002, 47.999864)">
    <g>
      <path d="M206.919,43.678C-1.253,71.189,22.953,67.896,9.349,70.077c-5.189,0.832-8.957,5.251-8.957,10.508v163.199 c0,5.882,4.761,10.648,10.646,10.648c0.003,0,0.006,0,0.009,0c65.036-0.055,130.694-1.763,197.272-1.815 c5.864-0.005,10.635-4.777,10.635-10.638V54.23C218.955,47.79,213.275,42.835,206.919,43.678z M203.977,237.646 c-63.787,0.118-126.402,1.681-188.607,1.803V84.281c8.842-1.418-12.877,1.521,188.607-25.106V237.646z" style="paint-order: fill; stroke-width: 2.66666px; stroke: rgb(27, 107, 249); fill: rgb(27, 107, 249);"/>
    </g>
  </g>
  <g transform="matrix(0.375001, 0, 0, 0.375001, 47.853002, 47.999864)">
    <g>
      <path d="M208.05,259.536c-57.71,1.425-198.01-0.083-197.011-0.083c-5.883,0-10.646,4.763-10.646,10.647v163.132 c0,5.302,3.962,9.836,9.216,10.547c1.054,0.143,196.121,26.521,198.697,26.521c5.861,0,10.648-4.753,10.648-10.642v-189.49 C218.955,264.096,213.927,259.385,208.05,259.536z M203.977,454.714c-64.737-8.535-127.664-17.035-188.607-25.271V274.526 c62.042,0.119,124.732,1.44,188.607,0V454.714z" style="paint-order: fill; stroke-width: 2.66666px; stroke: rgb(27, 107, 249); fill: rgb(27, 107, 249);"/>
    </g>
  </g>
  <g transform="matrix(0.375001, 0, 0, 0.375001, 47.853002, 47.999864)">
    <g>
      <path d="M499.452,0.109c-41.604,5.94-82.08,11.65-122.51,17.557c-4.093,0.598-6.926,4.401-6.328,8.493 c0.598,4.092,4.394,6.926,8.494,6.328c38.599-5.64,76.862-11.045,117.522-16.845v220.185 c-84.049,0.093-170.088,1.716-254.044,1.809V53.455c14.9-2.216,38.659-6.396,101.599-15.81c4.091-0.612,6.911-4.424,6.299-8.514 c-0.612-4.09-4.425-6.912-8.514-6.299c-63.066,9.433-85.428,13.405-105.283,16.357c-5.175,0.769-9.079,5.294-9.079,10.526V241.97 c0,5.88,4.755,10.645,10.64,10.645c82.463,0,176.023-1.774,262.73-1.815c5.861-0.003,10.63-4.776,10.63-10.638V10.642 C511.608,4.176,505.868-0.806,499.452,0.109z" style="paint-order: fill; stroke-width: 2.66666px; stroke: rgb(27, 107, 249); fill: rgb(27, 107, 249);"/>
    </g>
  </g>
  <g transform="matrix(0.375001, 0, 0, 0.375001, 47.853002, 47.999864)">
    <g>
      <path d="M504.119,385.694c4.136,0,7.489-3.353,7.489-7.489V271.912c0-5.868-4.774-10.642-10.642-10.642H238.25 c-5.868,0-10.642,4.774-10.642,10.642V464.15c0,5.266,3.93,9.798,9.143,10.539c86.516,12.319,175.875,23.127,262.52,37.17 c6.455,1.051,12.338-3.937,12.338-10.5v-88.207c0-4.136-3.353-7.489-7.489-7.489c-4.136,0-7.489,3.353-7.489,7.489v83.109 c-84.069-13.489-170.184-23.985-254.044-35.872V276.247H496.63v101.958C496.63,382.341,499.983,385.694,504.119,385.694z" style="paint-order: fill; stroke-width: 2.66666px; stroke: rgb(27, 107, 249); fill: rgb(27, 107, 249);"/>
    </g>
  </g>
  <g transform="matrix(0.500382, 0, 0, 0.500382, 166.182317, 20.590838)"/>
  <g transform="matrix(0.500382, 0, 0, 0.500382, 166.182317, 20.590838)"/>
  <g transform="matrix(0.500382, 0, 0, 0.500382, 166.182317, 20.590838)"/>
  <g transform="matrix(0.500382, 0, 0, 0.500382, 166.182317, 20.590838)"/>
  <g transform="matrix(0.500382, 0, 0, 0.500382, 166.182317, 20.590838)"/>
  <g transform="matrix(0.500382, 0, 0, 0.500382, 166.182317, 20.590838)"/>
  <g transform="matrix(0.500382, 0, 0, 0.500382, 166.182317, 20.590838)"/>
  <g transform="matrix(0.500382, 0, 0, 0.500382, 166.182317, 20.590838)"/>
  <g transform="matrix(0.500382, 0, 0, 0.500382, 166.182317, 20.590838)"/>
  <g transform="matrix(0.500382, 0, 0, 0.500382, 166.182317, 20.590838)"/>
  <g transform="matrix(0.500382, 0, 0, 0.500382, 166.182317, 20.590838)"/>
  <g transform="matrix(0.500382, 0, 0, 0.500382, 166.182317, 20.590838)"/>
  <g transform="matrix(0.500382, 0, 0, 0.500382, 166.182317, 20.590838)"/>
  <g transform="matrix(0.500382, 0, 0, 0.500382, 166.182317, 20.590838)"/>
  <g transform="matrix(0.500382, 0, 0, 0.500382, 166.182317, 20.590838)"/>
  <g transform="matrix(0.374999, 0, 0, 0.374999, 278.471139, 43.999959)">
    <g>
      <path d="M457.081,362.584c-14.003-7.049-47.42-28.262-55.26-72.862c-0.717-4.079-4.601-6.802-8.687-6.088 c-4.079,0.717-6.805,4.605-6.088,8.686c8.997,51.185,47.102,75.493,63.188,83.613c-4.334,12.556-14.158,37.284-31.447,62.524 c-18.375,26.867-39.2,57.318-70.12,57.904c-31.048,0.514-42.266-19.777-82.011-19.777c-39.752,0-52.398,19.222-81.827,20.388 c-27.702,1.06-49.923-27.66-72.124-59.749c-41.025-59.34-73.555-169.266-31.209-242.766 c17.707-30.733,47.025-51.569,80.435-57.165c4.085-0.684,6.842-4.551,6.158-8.637s-4.548-6.845-8.637-6.158 c-37.849,6.34-71.001,29.839-90.956,64.472c-45.263,78.562-12.643,194.408,31.87,258.788 c18.316,26.475,45.829,66.248,83.046,66.244c33.553,0,46.154-20.414,83.243-20.416c36.163,0,46.793,20.438,82.29,19.774 c38.656-0.733,62.814-36.053,82.22-64.43c18.326-26.754,28.72-52.962,33.283-66.204 C466.864,373.714,463.697,365.915,457.081,362.584z" style="stroke: rgb(238, 130, 0); paint-order: fill; fill: rgb(238, 130, 0); stroke-width: 2.66667px;"/>
    </g>
  </g>
  <g transform="matrix(0.374999, 0, 0, 0.374999, 278.471139, 43.999959)">
    <g>
      <path d="M363.875,14.506c-0.188-8.95-8.289-15.691-17.175-14.331c-58.293,8.905-100.445,65.247-98.593,114.719 c0.299,7.943,6.883,14.251,14.771,14.251c0.14,0,0.28-0.002,0.42-0.006C317.845,127.596,365.066,70.92,363.875,14.506z M263.091,114.138c-0.874-25.268,12.409-49.994,25.186-64.767c14.729-17.245,39.083-31.046,60.605-34.365 C349.781,62.719,309.703,112.647,263.091,114.138z" style="paint-order: fill; stroke-width: 2.66667px; fill: rgb(27, 107, 249); stroke: rgb(27, 107, 249);"/>
    </g>
  </g>
  <g transform="matrix(0.374999, 0, 0, 0.374999, 278.471139, 43.999959)">
    <g>
      <path d="M447.658,165.468c-22.62-28.835-54.825-43.14-91.835-45.9c-42.603-3.154-78.92,22.862-95.694,22.862 c-13.729,0-37.375-14.517-62.942-19.715c-4.062-0.828-8.019,1.796-8.845,5.855c-0.825,4.059,1.796,8.019,5.855,8.845 c25.02,5.088,47.74,20.016,65.932,20.016c21.872,0,55.367-25.811,94.582-22.904c32.643,2.436,61.016,14.63,81.035,40.061 c-13.025,9.383-43.764,35.909-49.606,80.457c-0.538,4.107,2.355,7.873,6.461,8.412c0.331,0.043,0.66,0.064,0.985,0.064 c3.708,0,6.931-2.75,7.428-6.525c5.09-38.814,32.158-62.078,43.558-70.277C451.318,181.869,452.966,172.233,447.658,165.468z" style="stroke: rgb(238, 130, 0); paint-order: fill; fill: rgb(238, 130, 0); stroke-width: 2.66667px;"/>
    </g>
  </g>
  <g transform="matrix(0.343897, 0, 0, 0.343897, 280.000008, 40.000001)"/>
  <g transform="matrix(0.343897, 0, 0, 0.343897, 280.000008, 40.000001)"/>
  <g transform="matrix(0.343897, 0, 0, 0.343897, 280.000008, 40.000001)"/>
  <g transform="matrix(0.343897, 0, 0, 0.343897, 280.000008, 40.000001)"/>
  <g transform="matrix(0.343897, 0, 0, 0.343897, 280.000008, 40.000001)"/>
  <g transform="matrix(0.343897, 0, 0, 0.343897, 280.000008, 40.000001)"/>
  <g transform="matrix(0.343897, 0, 0, 0.343897, 280.000008, 40.000001)"/>
  <g transform="matrix(0.343897, 0, 0, 0.343897, 280.000008, 40.000001)"/>
  <g transform="matrix(0.343897, 0, 0, 0.343897, 280.000008, 40.000001)"/>
  <g transform="matrix(0.343897, 0, 0, 0.343897, 280.000008, 40.000001)"/>
  <g transform="matrix(0.343897, 0, 0, 0.343897, 280.000008, 40.000001)"/>
  <g transform="matrix(0.343897, 0, 0, 0.343897, 280.000008, 40.000001)"/>
  <g transform="matrix(0.343897, 0, 0, 0.343897, 280.000008, 40.000001)"/>
  <g transform="matrix(0.343897, 0, 0, 0.343897, 280.000008, 40.000001)"/>
  <g transform="matrix(0.343897, 0, 0, 0.343897, 280.000008, 40.000001)"/>
  <g id="XMLID_91_" transform="matrix(0.629512, 0, 0, 0.629512, 173.989049, 272.000008)">
    <path id="XMLID_92_" d="M274.659,244.888c-8.944-3.663-12.77-8.524-12.4-15.777c0.381-8.466-4.422-14.667-6.703-17.117 c1.378-5.264,5.405-23.474,0.004-39.291c-5.804-16.93-23.524-42.787-41.808-68.204c-7.485-10.438-7.839-21.784-8.248-34.922 c-0.392-12.531-0.834-26.735-7.822-42.525C190.084,9.859,174.838,0,155.851,0c-11.295,0-22.889,3.53-31.811,9.684 c-18.27,12.609-15.855,40.1-14.257,58.291c0.219,2.491,0.425,4.844,0.545,6.853c1.064,17.816,0.096,27.206-1.17,30.06 c-0.819,1.865-4.851,7.173-9.118,12.793c-4.413,5.812-9.416,12.4-13.517,18.539c-4.893,7.387-8.843,18.678-12.663,29.597 c-2.795,7.99-5.435,15.537-8.005,20.047c-4.871,8.676-3.659,16.766-2.647,20.505c-1.844,1.281-4.508,3.803-6.757,8.557 c-2.718,5.8-8.233,8.917-19.701,11.122c-5.27,1.078-8.904,3.294-10.804,6.586c-2.765,4.791-1.259,10.811,0.115,14.925 c2.03,6.048,0.765,9.876-1.535,16.826c-0.53,1.604-1.131,3.42-1.74,5.423c-0.959,3.161-0.613,6.035,1.026,8.542 c4.331,6.621,16.969,8.956,29.979,10.492c7.768,0.922,16.27,4.029,24.493,7.035c8.057,2.944,16.388,5.989,23.961,6.913 c1.151,0.145,2.291,0.218,3.39,0.218c11.434,0,16.6-7.587,18.238-10.704c4.107-0.838,18.272-3.522,32.871-3.882 c14.576-0.416,28.679,2.462,32.674,3.357c1.256,2.404,4.567,7.895,9.845,10.724c2.901,1.586,6.938,2.495,11.073,2.495 c0.001,0,0,0,0.001,0c4.416,0,12.817-1.044,19.466-8.039c6.632-7.028,23.202-16,35.302-22.551c2.7-1.462,5.226-2.83,7.441-4.065 c6.797-3.768,10.506-9.152,10.175-14.771C282.445,250.905,279.356,246.811,274.659,244.888z M124.189,243.535 c-0.846-5.96-8.513-11.871-17.392-18.715c-7.26-5.597-15.489-11.94-17.756-17.312c-4.685-11.082-0.992-30.568,5.447-40.602 c3.182-5.024,5.781-12.643,8.295-20.011c2.714-7.956,5.521-16.182,8.66-19.783c4.971-5.622,9.565-16.561,10.379-25.182 c4.655,4.444,11.876,10.083,18.547,10.083c1.027,0,2.024-0.134,2.977-0.403c4.564-1.318,11.277-5.197,17.769-8.947 c5.597-3.234,12.499-7.222,15.096-7.585c4.453,6.394,30.328,63.655,32.972,82.044c2.092,14.55-0.118,26.578-1.229,31.289 c-0.894-0.122-1.96-0.221-3.08-0.221c-7.207,0-9.115,3.934-9.612,6.283c-1.278,6.103-1.413,25.618-1.427,30.003 c-2.606,3.311-15.785,18.903-34.706,21.706c-7.707,1.12-14.904,1.688-21.39,1.688c-5.544,0-9.082-0.428-10.551-0.651l-9.508-10.879 C121.429,254.489,125.177,250.583,124.189,243.535z M136.254,64.149c-0.297,0.128-0.589,0.265-0.876,0.411 c-0.029-0.644-0.096-1.297-0.199-1.952c-1.038-5.975-5-10.312-9.419-10.312c-0.327,0-0.656,0.025-1.017,0.08 c-2.629,0.438-4.691,2.413-5.821,5.213c0.991-6.144,4.472-10.693,8.602-10.693c4.85,0,8.947,6.536,8.947,14.272 C136.471,62.143,136.4,63.113,136.254,64.149z M173.94,68.756c0.444-1.414,0.684-2.944,0.684-4.532 c0-7.014-4.45-12.509-10.131-12.509c-5.552,0-10.069,5.611-10.069,12.509c0,0.47,0.023,0.941,0.067,1.411 c-0.294-0.113-0.581-0.223-0.861-0.329c-0.639-1.935-0.962-3.954-0.962-6.015c0-8.387,5.36-15.211,11.95-15.211 c6.589,0,11.95,6.824,11.95,15.211C176.568,62.78,175.605,66.11,173.94,68.756z M169.081,85.08 c-0.095,0.424-0.297,0.612-2.531,1.774c-1.128,0.587-2.532,1.318-4.289,2.388l-1.174,0.711c-4.718,2.86-15.765,9.559-18.764,9.952 c-2.037,0.274-3.297-0.516-6.13-2.441c-0.639-0.435-1.319-0.897-2.044-1.362c-5.107-3.351-8.392-7.042-8.763-8.485 c1.665-1.287,5.792-4.508,7.905-6.415c4.289-3.988,8.605-6.668,10.741-6.668c0.113,0,0.215,0.008,0.321,0.028 c2.51,0.443,8.701,2.914,13.223,4.718c2.09,0.834,3.895,1.554,5.165,2.01C166.742,82.664,168.828,84.422,169.081,85.08z M205.028,271.45c2.257-10.181,4.857-24.031,4.436-32.196c-0.097-1.855-0.261-3.874-0.42-5.826 c-0.297-3.65-0.738-9.075-0.283-10.684c0.09-0.042,0.19-0.078,0.301-0.109c0.019,4.668,1.033,13.979,8.479,17.226 c2.219,0.968,4.755,1.458,7.537,1.458c7.459,0,15.735-3.659,19.125-7.049c1.996-1.996,3.675-4.438,4.851-6.372 c0.257,0.753,0.415,1.737,0.332,3.005c-0.443,6.885,2.903,16.019,9.271,19.385l0.927,0.487c2.268,1.19,8.292,4.353,8.389,5.853 c-0.001,0.001-0.051,0.177-0.387,0.489c-1.509,1.379-6.82,4.091-11.956,6.714c-9.111,4.652-19.438,9.925-24.076,14.803 c-6.53,6.872-13.916,11.488-18.376,11.488c-0.537,0-1.026-0.068-1.461-0.206C206.873,288.406,202.886,281.417,205.028,271.45z M39.917,245.477c-0.494-2.312-0.884-4.137-0.465-5.905c0.304-1.31,6.771-2.714,9.533-3.313c3.883-0.843,7.899-1.714,10.525-3.308 c3.551-2.151,5.474-6.118,7.17-9.618c1.228-2.531,2.496-5.148,4.005-6.007c0.085-0.05,0.215-0.108,0.463-0.108 c2.827,0,8.759,5.943,12.177,11.262c0.867,1.341,2.473,4.028,4.331,7.139c5.557,9.298,13.166,22.033,17.14,26.301 c3.581,3.837,9.378,11.214,7.952,17.541c-1.044,4.909-6.602,8.901-7.913,9.784c-0.476,0.108-1.065,0.163-1.758,0.163 c-7.606,0-22.662-6.328-30.751-9.728l-1.197-0.503c-4.517-1.894-11.891-3.087-19.022-4.241c-5.674-0.919-13.444-2.176-14.732-3.312 c-1.044-1.171,0.167-4.978,1.235-8.337c0.769-2.414,1.563-4.91,1.998-7.523C41.225,251.596,40.499,248.203,39.917,245.477z" style="paint-order: fill; fill: rgb(238, 130, 0);"/>
  </g>
  <g transform="matrix(0.524594, 0, 0, 0.524594, 176.000005, 304.000009)"/>
  <g transform="matrix(0.524594, 0, 0, 0.524594, 176.000005, 304.000009)"/>
  <g transform="matrix(0.524594, 0, 0, 0.524594, 176.000005, 304.000009)"/>
  <g transform="matrix(0.524594, 0, 0, 0.524594, 176.000005, 304.000009)"/>
  <g transform="matrix(0.524594, 0, 0, 0.524594, 176.000005, 304.000009)"/>
  <g transform="matrix(0.524594, 0, 0, 0.524594, 176.000005, 304.000009)"/>
  <g transform="matrix(0.524594, 0, 0, 0.524594, 176.000005, 304.000009)"/>
  <g transform="matrix(0.524594, 0, 0, 0.524594, 176.000005, 304.000009)"/>
  <g transform="matrix(0.524594, 0, 0, 0.524594, 176.000005, 304.000009)"/>
  <g transform="matrix(0.524594, 0, 0, 0.524594, 176.000005, 304.000009)"/>
  <g transform="matrix(0.524594, 0, 0, 0.524594, 176.000005, 304.000009)"/>
  <g transform="matrix(0.524594, 0, 0, 0.524594, 176.000005, 304.000009)"/>
  <g transform="matrix(0.524594, 0, 0, 0.524594, 176.000005, 304.000009)"/>
  <g transform="matrix(0.524594, 0, 0, 0.524594, 176.000005, 304.000009)"/>
  <g transform="matrix(0.524594, 0, 0, 0.524594, 176.000005, 304.000009)"/>
</svg>